<svg id="Layer_1" xmlns="http://www.w3.org/2000/svg" viewBox="0 0 16.8 16.8"><style>.st0{fill:#0d3758}</style><path class="st0" d="M8.4 2.5s-.9 2.8 0 5.2 2.9 6.1 2.1 8.2c0 0 2.6-2.7 1.6-5.8S9.3 6.4 8.4 2.5zM13.9 4.1c0 2-1.1 2.9-2 3.8.3.6.6 1.2.9 2 .1.3.2.7.2 1 .7-.7 2.6-3.6.9-6.8z"/><path class="st0" d="M9.5 16.4s.1 0 .3-.8c.4-1.5-.6-4.2-1.5-6.2 0-.1-.1-.2-.1-.3-.1-.1-.1-.3-.2-.4-.1-.2-.2-.5-.3-.7-.3-.9-.4-1.8-.4-2.6-2.6 4.5.2 8.2 1.3 9.3.5.6.9 1.4.9 1.7z"/><circle class="st0" cx="4.6" cy="7.9" r=".9"/><circle class="st0" cx="11.6" cy="5.4" r="1"/><path class="st0" d="M5.6 11.1c-2.5-1.4-3-3.2-3-3.2 0 .6.1 1.1.2 1.6.3 1.4 1.3 3.4 4.2 4.5-.5-.7-1.1-1.7-1.4-2.9z"/><path class="st0" d="M8.8 16.4c0-.2-.3-.7-.8-1.2-.1-.1-.2-.3-.4-.5C3.8 14.4.8 11.2.8 7.3.8 4.4 2.5 1.9 4.9.7 2 2.1 0 5 0 8.4c0 4.6 3.8 8.4 8.4 8.4h.4c-.1-.1 0 0 0-.4zM8.6 0c3.9.3 6.9 3.5 6.9 7.4 0 2.3-1 4.3-2.6 5.6-.4 1.6-1.3 2.8-1.7 3.2 3.2-1.2 5.5-4.3 5.5-7.9.1-4.5-3.6-8.2-8.1-8.3z"/></svg>