<?xml version="1.0" encoding="utf-8"?>
<!-- Generator: Adobe Illustrator 21.1.0, SVG Export Plug-In . SVG Version: 6.00 Build 0)  -->
<svg version="1.1" id="Layer_1" xmlns="http://www.w3.org/2000/svg" xmlns:xlink="http://www.w3.org/1999/xlink" x="0px" y="0px"
	 viewBox="0 0 53.4 16.8" style="enable-background:new 0 0 53.4 16.8;" xml:space="preserve">
<style type="text/css">
	.st0{fill:#FFFFFF;}
</style>
<g>
	<path class="st0" d="M7.3,14.2C7.2,14.2,7,14,6.9,13.9c-0.3-0.3-0.6-0.7-0.7-1.1C6,12.4,5.9,12,5.9,11.5l0-6l0,0
		c0-0.3-0.1-0.6-0.2-0.8C5.6,4.5,5.4,4.3,5.2,4.1C5,3.9,4.8,3.7,4.5,3.6C4.2,3.5,3.9,3.4,3.6,3.4C3.3,3.4,3,3.5,2.8,3.6
		C2.5,3.7,2.3,3.9,2.1,4.1C1.9,4.3,1.7,4.5,1.6,4.8C1.5,5.1,1.4,5.4,1.4,5.7v0.6v3.8l0,0H3V6.3V5.7C3,5.6,3,5.5,3,5.4
		c0-0.1,0.1-0.2,0.1-0.2c0.1-0.1,0.1-0.1,0.2-0.1C3.5,5,3.5,5,3.6,5c0.1,0,0.2,0,0.3,0.1C4,5.1,4,5.1,4.1,5.2
		c0.1,0.1,0.1,0.1,0.1,0.2c0.1,0.1,0,0.1,0.1,0.2l0,0c0,2,0,3.9,0,5.9H0l0-5.8c0-0.5,0.1-1,0.3-1.4c0.2-0.4,0.4-0.8,0.8-1.2
		c0.3-0.3,0.7-0.6,1.2-0.8C2.7,2.1,3.2,2,3.6,2c0.5,0,1,0.1,1.4,0.3c0.4,0.2,0.8,0.4,1.2,0.8C6.5,3.4,6.8,3.8,7,4.2
		C7.1,4.6,7.3,5,7.3,5.5l0,0.1v0C7.3,7.3,7.3,12.5,7.3,14.2"/>
	<path class="st0" d="M10.1,14.2C10,14.2,9.9,14,9.8,13.9c-0.3-0.3-0.6-0.7-0.7-1.1c-0.2-0.3-0.3-0.7-0.3-1.1V5.6V5.5l0-0.1
		c0-0.6-0.2-1.3-0.4-1.8C8,3,7.7,2.5,7.2,2.1C6.8,1.6,6.3,1.3,5.8,1C6,1,6.2,1,6.5,1c0.5,0,1,0.1,1.4,0.3C8.3,1.4,8.7,1.7,9,2
		c0.3,0.3,0.6,0.7,0.7,1.1C10,3.5,10.1,4,10.1,4.4l0,0.1v0C10.1,6.2,10.1,12.5,10.1,14.2"/>
</g>
<g>
	<path class="st0" d="M20.9,4.7v7.7h-1v-1.3c-0.4,0.5-0.9,0.9-1.4,1.1c-0.5,0.3-1.1,0.4-1.7,0.4c-1.1,0-2-0.4-2.8-1.2
		c-0.8-0.8-1.2-1.7-1.2-2.9c0-1.1,0.4-2,1.2-2.8c0.8-0.8,1.7-1.2,2.8-1.2c0.6,0,1.2,0.1,1.7,0.4c0.5,0.3,1,0.7,1.3,1.2V4.7H20.9z
		 M17,5.5c-0.5,0-1.1,0.1-1.5,0.4C15,6.2,14.6,6.5,14.3,7s-0.4,1-0.4,1.5c0,0.5,0.1,1.1,0.4,1.5c0.3,0.5,0.6,0.9,1.1,1.2
		c0.5,0.3,1,0.4,1.5,0.4c0.5,0,1.1-0.1,1.5-0.4c0.5-0.3,0.9-0.6,1.1-1.1c0.3-0.5,0.4-1,0.4-1.6c0-0.9-0.3-1.6-0.9-2.2
		C18.5,5.8,17.8,5.5,17,5.5z"/>
	<path class="st0" d="M23,1.8h1v10.6h-1V1.8z"/>
	<path class="st0" d="M26,4.7h1v1.4c0.4-0.5,0.8-0.9,1.3-1.2c0.5-0.3,1.1-0.4,1.7-0.4c1.1,0,2,0.4,2.8,1.2C33.6,6.5,34,7.4,34,8.5
		c0,1.1-0.4,2.1-1.2,2.9s-1.7,1.2-2.8,1.2c-0.6,0-1.2-0.1-1.7-0.4c-0.5-0.3-1-0.6-1.4-1.1v4.1h-1V4.7z M30,5.5
		c-0.9,0-1.6,0.3-2.2,0.9S27,7.7,27,8.6c0,0.6,0.1,1.1,0.4,1.6c0.3,0.5,0.6,0.8,1.1,1.1c0.5,0.3,1,0.4,1.5,0.4c0.5,0,1-0.1,1.5-0.4
		c0.5-0.3,0.8-0.7,1.1-1.2s0.4-1,0.4-1.5C33,8,32.9,7.5,32.6,7c-0.3-0.5-0.6-0.9-1.1-1.1C31,5.6,30.5,5.5,30,5.5z"/>
	<path class="st0" d="M35.9,1.8h1v4.3c0.4-0.5,0.8-0.9,1.3-1.2c0.5-0.3,1-0.4,1.6-0.4c0.6,0,1.1,0.1,1.5,0.4c0.4,0.3,0.8,0.7,1,1.2
		c0.2,0.5,0.3,1.3,0.3,2.3v3.9h-1V8.7c0-0.9,0-1.5-0.1-1.8c-0.1-0.5-0.3-0.9-0.7-1.1c-0.3-0.3-0.7-0.4-1.3-0.4
		c-0.6,0-1.1,0.2-1.6,0.6c-0.5,0.4-0.8,0.9-0.9,1.5c-0.1,0.4-0.1,1.1-0.1,2.1v2.8h-1V1.8z"/>
	<path class="st0" d="M52.3,4.7v7.7h-1v-1.3c-0.4,0.5-0.9,0.9-1.4,1.1c-0.5,0.3-1.1,0.4-1.7,0.4c-1.1,0-2-0.4-2.8-1.2
		c-0.8-0.8-1.2-1.7-1.2-2.9c0-1.1,0.4-2,1.2-2.8c0.8-0.8,1.7-1.2,2.8-1.2c0.6,0,1.2,0.1,1.7,0.4c0.5,0.3,1,0.7,1.3,1.2V4.7H52.3z
		 M48.4,5.5c-0.5,0-1.1,0.1-1.5,0.4C46.4,6.2,46,6.5,45.7,7s-0.4,1-0.4,1.5c0,0.5,0.1,1.1,0.4,1.5c0.3,0.5,0.6,0.9,1.1,1.2
		c0.5,0.3,1,0.4,1.5,0.4c0.5,0,1.1-0.1,1.5-0.4c0.5-0.3,0.9-0.6,1.1-1.1c0.3-0.5,0.4-1,0.4-1.6c0-0.9-0.3-1.6-0.9-2.2
		C49.9,5.8,49.2,5.5,48.4,5.5z"/>
</g>
</svg>
