<?xml version="1.0" encoding="utf-8"?>
<!-- Generator: Adobe Illustrator 21.1.0, SVG Export Plug-In . SVG Version: 6.00 Build 0)  -->
<svg version="1.1" id="Layer_1" xmlns="http://www.w3.org/2000/svg" xmlns:xlink="http://www.w3.org/1999/xlink" x="0px" y="0px"
	 viewBox="0 0 16.8 16.8" style="enable-background:new 0 0 16.8 16.8;" xml:space="preserve">
<style type="text/css">
	.st0{fill:#F7CB3B;}
	.st1{fill:#61C7F2;}
	.st2{fill:#F27234;}
	.st3{fill:#EE3E32;}
	.st4{fill:#5BB949;}
	.st5{fill:#D98DBC;}
	.st6{fill:#804F9F;}
	.st7{fill:#456EB5;}
</style>
<g>
	<path class="st0" d="M8.4,2.5c0,0-0.9,2.8,0,5.2c0.9,2.4,2.9,6.1,2.1,8.2c0,0,2.6-2.7,1.6-5.8C11.1,7,9.3,6.4,8.4,2.5z"/>
	<path class="st1" d="M13.9,4.1c0,2-1.1,2.9-2,3.8c0.3,0.6,0.6,1.2,0.9,2c0.1,0.3,0.2,0.7,0.2,1C13.7,10.2,15.6,7.3,13.9,4.1z"/>
	<path class="st2" d="M9.5,16.4c0,0,0.1,0,0.3-0.8c0.4-1.5-0.6-4.2-1.5-6.2c0-0.1-0.1-0.2-0.1-0.3C8.1,9,8.1,8.8,8,8.7
		C7.9,8.5,7.8,8.2,7.7,8C7.4,7.1,7.3,6.2,7.3,5.4c-2.6,4.5,0.2,8.2,1.3,9.3C9.1,15.3,9.5,16.1,9.5,16.4z"/>
	<circle class="st3" cx="4.6" cy="7.9" r="0.9"/>
	<circle class="st4" cx="11.6" cy="5.4" r="1"/>
	<path class="st5" d="M5.6,11.1C3.1,9.7,2.6,7.9,2.6,7.9c0,0.6,0.1,1.1,0.2,1.6C3.1,10.9,4.1,12.9,7,14C6.5,13.3,5.9,12.3,5.6,11.1z
		"/>
	<g>
		<path class="st6" d="M8.8,16.4c0-0.2-0.3-0.7-0.8-1.2c-0.1-0.1-0.2-0.3-0.4-0.5c-3.8-0.3-6.8-3.5-6.8-7.4c0-2.9,1.7-5.4,4.1-6.6
			C2,2.1,0,5,0,8.4c0,4.6,3.8,8.4,8.4,8.4c0.1,0,0.2,0,0.4,0C8.7,16.7,8.8,16.8,8.8,16.4z"/>
		<path class="st7" d="M8.6,0L8.6,0c3.9,0.3,6.9,3.5,6.9,7.4c0,2.3-1,4.3-2.6,5.6c-0.4,1.6-1.3,2.8-1.7,3.2c3.2-1.2,5.5-4.3,5.5-7.9
			C16.8,3.8,13.1,0.1,8.6,0z"/>
	</g>
</g>
</svg>
